<svg width="22" height="22" viewBox="0 0 22 22" fill="none" xmlns="http://www.w3.org/2000/svg">
<path fill-rule="evenodd" clip-rule="evenodd" d="M0.25 10.9999C0.25 5.06282 5.06294 0.249878 11 0.249878C16.9371 0.249878 21.75 5.06282 21.75 10.9999C21.75 16.9369 16.9371 21.7499 11 21.7499C5.06294 21.7499 0.25 16.9369 0.25 10.9999ZM11 2.24988C6.16751 2.24988 2.25 6.16739 2.25 10.9999C2.25 15.4942 5.63843 19.1971 10 19.6934V13H8.5C7.94772 13 7.5 12.5523 7.5 12C7.5 11.4477 7.94772 11 8.5 11H10V9C10 7.067 11.567 5.5 13.5 5.5H14C14.5523 5.5 15 5.94772 15 6.5C15 7.05228 14.5523 7.5 14 7.5H13.5C12.6716 7.5 12 8.17157 12 9V11H13.5C14.0523 11 14.5 11.4477 14.5 12C14.5 12.5523 14.0523 13 13.5 13H12V19.6934C16.3616 19.1971 19.75 15.4942 19.75 10.9999C19.75 6.16739 15.8325 2.24988 11 2.24988Z" fill="#253659"/>
</svg>
