<svg width="20" height="20" viewBox="0 0 20 20" fill="none" xmlns="http://www.w3.org/2000/svg">
<path fill-rule="evenodd" clip-rule="evenodd" d="M10 14.5C12.4853 14.5 14.5 12.4853 14.5 10C14.5 7.51472 12.4853 5.5 10 5.5C7.51472 5.5 5.5 7.51472 5.5 10C5.5 12.4853 7.51472 14.5 10 14.5ZM10 12.5C11.3807 12.5 12.5 11.3807 12.5 10C12.5 8.61929 11.3807 7.5 10 7.5C8.61929 7.5 7.5 8.61929 7.5 10C7.5 11.3807 8.61929 12.5 10 12.5Z" fill="#253659"/>
<path d="M15 6.25C15.6904 6.25 16.25 5.69036 16.25 5C16.25 4.30964 15.6904 3.75 15 3.75C14.3096 3.75 13.75 4.30964 13.75 5C13.75 5.69036 14.3096 6.25 15 6.25Z" fill="#253659"/>
<path fill-rule="evenodd" clip-rule="evenodd" d="M0.803847 3C0 4.3923 0 6.26154 0 10C0 13.7385 0 15.6077 0.803847 17C1.33046 17.9121 2.08788 18.6695 3 19.1962C4.3923 20 6.26154 20 10 20C13.7385 20 15.6077 20 17 19.1962C17.9121 18.6695 18.6695 17.9121 19.1962 17C20 15.6077 20 13.7385 20 10C20 6.26154 20 4.3923 19.1962 3C18.6695 2.08788 17.9121 1.33046 17 0.803847C15.6077 0 13.7385 0 10 0C6.26154 0 4.3923 0 3 0.803847C2.08788 1.33046 1.33046 2.08788 0.803847 3ZM5.80072 17.9077C6.79815 17.9981 8.09396 18 10 18C11.906 18 13.2018 17.9981 14.1993 17.9077C15.1692 17.8198 15.659 17.661 16 17.4641C16.6081 17.113 17.113 16.6081 17.4641 16C17.661 15.659 17.8198 15.1692 17.9077 14.1993C17.9981 13.2018 18 11.906 18 10C18 8.09396 17.9981 6.79815 17.9077 5.80072C17.8198 4.83078 17.661 4.34102 17.4641 4C17.113 3.39192 16.6081 2.88697 16 2.5359C15.659 2.33901 15.1692 2.18023 14.1993 2.09232C13.2018 2.00192 11.906 2 10 2C8.09396 2 6.79815 2.00192 5.80072 2.09232C4.83078 2.18023 4.34102 2.33901 4 2.5359C3.39192 2.88697 2.88697 3.39192 2.5359 4C2.33901 4.34102 2.18023 4.83078 2.09232 5.80072C2.00192 6.79815 2 8.09396 2 10C2 11.906 2.00192 13.2018 2.09232 14.1993C2.18023 15.1692 2.33901 15.659 2.5359 16C2.88697 16.6081 3.39192 17.113 4 17.4641C4.34102 17.661 4.83078 17.8198 5.80072 17.9077Z" fill="#253659"/>
</svg>
