<svg width="24" height="18" viewBox="0 0 24 18" fill="none" xmlns="http://www.w3.org/2000/svg">
<path fill-rule="evenodd" clip-rule="evenodd" d="M5.90619 2.35686C7.51902 2.16366 9.59527 2 12 2C14.4047 2 16.481 2.16366 18.0938 2.35686C19.8616 2.56863 20.3499 2.66065 20.9213 3.22671C21.4971 3.79724 21.5844 4.24338 21.7963 5.88331C21.9155 6.80596 22 7.86179 22 9C22 10.1382 21.9155 11.194 21.7963 12.1167C21.5844 13.7566 21.4971 14.2028 20.9213 14.7733C20.3499 15.3394 19.8616 15.4314 18.0938 15.6431C16.481 15.8363 14.4047 16 12 16C9.59527 16 7.51902 15.8363 5.90619 15.6431C4.13838 15.4314 3.65008 15.3394 3.07874 14.7733C2.5029 14.2028 2.41561 13.7566 2.20371 12.1167C2.08449 11.194 2 10.1382 2 9C2 7.86179 2.08449 6.80596 2.20371 5.88331C2.41561 4.24338 2.5029 3.79724 3.07874 3.22671C3.65008 2.66065 4.13838 2.56863 5.90619 2.35686ZM12 0C9.5054 0 7.34907 0.169721 5.66831 0.371059L5.51189 0.389729C3.94691 0.576168 2.77095 0.716263 1.67111 1.80595C0.571719 2.89518 0.428179 4.01078 0.237178 5.49524L0.2202 5.62701C0.0916681 6.62172 0 7.76397 0 9C0 10.236 0.0916682 11.3783 0.220201 12.373L0.237178 12.5048C0.428179 13.9892 0.571719 15.1048 1.67111 16.1941C2.77096 17.2837 3.94692 17.4238 5.5119 17.6103L5.66831 17.6289C7.34907 17.8303 9.5054 18 12 18C14.4946 18 16.6509 17.8303 18.3317 17.6289L18.4881 17.6103C20.0531 17.4238 21.229 17.2837 22.3289 16.1941C23.4283 15.1048 23.5718 13.9892 23.7628 12.5048L23.7798 12.373C23.9083 11.3783 24 10.236 24 9C24 7.76397 23.9083 6.62172 23.7798 5.627L23.7628 5.49523C23.5718 4.01077 23.4283 2.89518 22.3289 1.80595C21.229 0.716262 20.0531 0.576168 18.4881 0.389728L18.3317 0.371059C16.6509 0.169721 14.4946 0 12 0ZM10.7193 5.75032L14.8928 8.31867L14.8929 8.31868C15.2592 8.54415 15.4424 8.65688 15.505 8.80177C15.5596 8.92828 15.5596 9.07172 15.505 9.19823C15.4424 9.34312 15.2592 9.45585 14.8928 9.68133L10.7193 12.2497L10.7193 12.2497C10.3209 12.4948 10.1217 12.6174 9.95751 12.6034C9.81437 12.5912 9.6834 12.518 9.59798 12.4025C9.5 12.27 9.5 12.0361 9.5 11.5683V6.43165C9.5 5.96388 9.5 5.72999 9.59798 5.5975C9.6834 5.48199 9.81437 5.4088 9.95751 5.39659C10.1217 5.38259 10.3209 5.50517 10.7193 5.75032Z" fill="#253659"/>
</svg>
